# xmcd
#
# Track frame offsets: 
#        182
#        30367
#        74302
#        103245
#        136712
#        166362
#        192272
#        227032
#        271192
#
# Disc length: 3929 seconds
#
# Revision: 7
# Processed by: cddbd v1.5.2PL0 Copyright (c) Steve Scherf et al.
# Submitted via: ExactAudioCopy v1.1
#
DISCID=720f5709
DTITLE=Metallica - …and Justice for All [Vertigo - 836 062-2]
DYEAR=1988
DGENRE=Metal
TTITLE0=Blackened
TTITLE1=…and Justice for All
TTITLE2=Eye of the Beholder
TTITLE3=One
TTITLE4=The Shortest Straw
TTITLE5=Harvester of Sorrow
TTITLE6=The Frayed Ends of Sanity
TTITLE7=To Live Is to Die
TTITLE8=Dyers Eve
EXTD=Produced by: Metallica with Flemming Rasmussen [Vertigo] YEAR: 19
EXTD=88
EXTT0=Hetfield - Ulrich - Newsted
EXTT1=Hetfield - Ulrich - Hammett
EXTT2=Hetfield - Ulrich - Hammett
EXTT3=Hetfield - Ulrich
EXTT4=Hetfield - Ulrich
EXTT5=Hetfield - Ulrich
EXTT6=Hetfield - Ulrich - Hammett
EXTT7=Hetfield - Ulrich - Burton
EXTT8=Hetfield - Ulrich - Hammett
PLAYORDER=
